:SAMPLES-PER-SECOND 30
:FULLY-SPECIFIED
:DEGREES
1291
root  30.323 38.8188 12.6555 173.813 -49.4738 179.227
RightUpLeg  -22.7722 -5.19362 -5.61044
RightLeg  33.8438 1.9728 1.1858
RightFoot  -12.6721 -0.00165715 7.26182
RightToes  6.35927e-011 1.30204e-014 -6.03759e-014
Spine  15.0931 -1.46737 -0.9057
Spine1  6.00302 -2.0732 0.889318
HEad  -23.7932 10.4829 8.11051
LeftShoulder1  1.36129 -0.697916 -26.2442
LeftArm  1.74074 -26.9573 -36.4901
LeftForeArm  7.11691 -69.8381 -32.9758
LeftHand  -0.0842707 0.488649 1.95606
RightShoulder  0.193707 -2.84973 24.6116
RightArm  -12.4801 6.04491 21.2415
RightForeArm  3.91963 74.3327 48.9501
RightHand  -0.0968524 6.62106 -1.28562
LeftUpLeg  6.10285 3.95963 -3.53937
LeftLeg  16.6425 -6.47376 -0.84042
LeftFoot  -15.3249 0.347327 7.32191
LeftToes  -7.16024e-010 4.79583e-011 -5.98286e-011
1292
root  29.5691 38.7488 12.124 173.898 -54.1462 179.054
RightUpLeg  -22.4083 -5.10716 -5.12189
RightLeg  26.1293 1.82512 0.758268
RightFoot  -12.8741 0.0101031 7.2787
RightToes  6.35927e-011 1.30204e-014 -6.03759e-014
Spine  14.5173 -1.68407 -0.836067
Spine1  6.45081 -2.24878 0.989554
HEad  -24.6885 10.7995 8.10517
LeftShoulder1  1.33571 -0.613156 -26.2903
LeftArm  1.16064 -27.2609 -36.6036
LeftForeArm  7.37513 -69.9572 -33.2094
LeftHand  -0.0743509 0.206328 1.65797
RightShoulder  0.170832 -2.9233 24.579
RightArm  -13.4731 5.94203 21.6952
RightForeArm  7.05189 74.8882 51.4056
RightHand  -0.0511258 6.32225 -0.839428
LeftUpLeg  7.626 2.4949 -3.84216
LeftLeg  16.5276 -8.98146 -1.09785
LeftFoot  -16.1497 0.42935 7.90302
LeftToes  -7.16024e-010 4.79583e-011 -5.98286e-011
1293
root  28.7381 38.6384 11.5439 173.954 -58.4947 178.901
RightUpLeg  -21.5597 -4.75526 -5.13081
RightLeg  17.9284 2.23912 0.565447
RightFoot  -12.2199 -0.0270763 7.33446
RightToes  6.35927e-011 1.30204e-014 -6.03759e-014
Spine  13.6862 -1.8362 -0.517836
Spine1  7.29696 -2.3416 1.03956
HEad  -25.6032 10.5793 7.56226
LeftShoulder1  1.33137 -0.571533 -26.5229
LeftArm  0.527516 -27.5112 -36.6063
LeftForeArm  7.76807 -70.1742 -33.6568
LeftHand  -0.0710106 -0.0650536 1.53058
RightShoulder  0.153981 -2.97685 24.5071
RightArm  -14.765 5.5184 22.1595
RightForeArm  11.8184 75.6501 55.3731
RightHand  -0.00128162 5.47097 -0.337854
LeftUpLeg  9.19998 0.444507 -4.06997
LeftLeg  16.755 -10.8303 -1.47568
LeftFoot  -16.9947 0.527391 8.58447
LeftToes  -7.16024e-010 4.79583e-011 -5.98286e-011
1294
root  27.8004 38.4386 10.9164 174.049 -62.2226 178.446
RightUpLeg  -20.4245 -4.4856 -5.39008
RightLeg  10.9375 3.56512 0.19429
RightFoot  -11.3785 -0.0746105 7.75792
RightToes  6.35927e-011 1.30204e-014 -6.03759e-014
Spine  12.8847 -1.86769 0.0167199
Spine1  8.27293 -2.21505 0.679929
HEad  -26.4515 10.0386 7.02804
LeftShoulder1  1.31629 -0.492708 -26.7979
LeftArm  -0.102095 -27.5375 -36.7028
LeftForeArm  8.45176 -70.555 -34.4765
LeftHand  -0.0830871 0.0488979 1.82006
RightShoulder  0.130908 -3.05205 24.5292
RightArm  -16.0705 5.07668 22.678
RightForeArm  17.173 76.4525 60.8444
RightHand  -0.0485253 4.92649 -0.843254
LeftUpLeg  11.0783 -2.19469 -4.58947
LeftLeg  17.3625 -11.2535 -1.80703
LeftFoot  -18.2882 0.698476 9.65038
LeftToes  -7.16024e-010 4.79583e-011 -5.98286e-011
1295
root  26.7475 38.1441 10.2248 174.475 -65.5033 177.476
RightUpLeg  -19.304 -5.23588 -5.46418
RightLeg  6.88668 5.72892 -0.39831
RightFoot  -11.2581 -0.0829795 8.31973
RightToes  6.35927e-011 1.30204e-014 -6.03759e-014
Spine  12.1184 -1.84625 0.461015
Spine1  9.09039 -2.0233 0.168144
HEad  -26.9485 9.67674 6.42711
LeftShoulder1  1.27007 -0.33048 -26.9888
LeftArm  -0.628151 -27.1211 -36.9113
LeftForeArm  9.48338 -71.0492 -35.5861
LeftHand  -0.0938421 0.411384 2.15877
RightShoulder  0.0917526 -3.18057 24.6849
RightArm  -17.0546 4.82374 23.1319
RightForeArm  22.5317 77.0919 66.7947
RightHand  -0.11117 4.89904 -1.55491
LeftUpLeg  13.2142 -4.93223 -5.30325
LeftLeg  18.2619 -10.573 -2.22074
LeftFoot  -20.2253 0.933331 10.4255
LeftToes  -7.16024e-010 4.79583e-011 -5.98286e-011
1296
root  25.6187 37.8046 9.46642 174.941 -68.5681 176.606
RightUpLeg  -18.4954 -5.49993 -5.53245
RightLeg  6.42618 6.87278 -0.556914
RightFoot  -9.90231 -0.173491 8.40883
RightToes  6.35927e-011 1.30204e-014 -6.03759e-014
Spine  11.0935 -1.76008 0.653013
Spine1  10.0182 -1.9722 0.296705
HEad  -27.194 9.43819 5.3418
LeftShoulder1  1.1978 -0.0731116 -27.3665
LeftArm  -1.12487 -26.5316 -36.8682
LeftForeArm  10.7876 -71.6146 -36.9389
LeftHand  -0.0979264 0.594864 2.31884
RightShoulder  0.0543535 -3.30171 24.7162
RightArm  -17.8787 4.67927 23.4721
RightForeArm  28.8166 77.5798 72.89
RightHand  -0.0913206 4.72368 -1.33695
LeftUpLeg  15.2634 -7.71365 -5.7256
LeftLeg  19.4801 -9.74252 -2.95246
LeftFoot  -22.1942 1.11513 10.3075
LeftToes  -7.16024e-010 4.79583e-011 -5.98286e-011
1297
root  24.4513 37.4644 8.67705 174.339 -71.1433 177.086
RightUpLeg  -18.4674 -4.54979 -5.34808
RightLeg  9.20081 7.22848 -0.00537679
RightFoot  -4.57401 -0.494646 7.88376
RightToes  6.35927e-011 1.30204e-014 -6.03759e-014
Spine  9.80636 -1.49724 1.0418
Spine1  11.3389 -1.94331 1.23976
HEad  -27.9177 9.16411 3.63637
LeftShoulder1  1.11687 0.257462 -28.3026
LeftArm  -1.77853 -26.1452 -36.3499
LeftForeArm  12.2679 -72.2428 -38.5966
LeftHand  -0.108087 0.483989 2.52221
RightShoulder  0.0367764 -3.35731 24.3985
RightArm  -18.8422 4.58592 23.752
RightForeArm  37.0043 77.9707 80.0038
RightHand  -0.0249151 4.11973 -0.577889
LeftUpLeg  16.895 -9.98655 -5.37647
LeftLeg  21.4287 -9.80223 -3.93597
LeftFoot  -23.7007 1.20476 9.77922
LeftToes  -7.16024e-010 4.79583e-011 -5.98286e-011
1298
root  23.2619 37.1468 7.91274 171.835 -72.813 179.704
RightUpLeg  -19.6597 -2.54976 -4.93999
RightLeg  14.5312 7.28835 1.41913
RightFoot  2.93395 -0.806215 6.63959
RightToes  6.35927e-011 1.30204e-014 -6.03759e-014
Spine  9.03941 -1.31643 2.8591
Spine1  12.148 -1.61023 1.34199
HEad  -29.243 9.13871 2.05132
LeftShoulder1  1.01928 0.603621 -29.046
LeftArm  -2.80258 -25.1807 -35.6447
LeftForeArm  14.4715 -73.0928 -41.1197
LeftHand  -0.121882 0.317977 2.77977
RightShoulder  0.0144202 -3.42996 24.3099
RightArm  -19.3943 4.74088 24.0519
RightForeArm  45.3183 78.1683 87.4141
RightHand  0.00463257 3.59719 -0.195335
LeftUpLeg  17.5757 -10.5847 -3.79094
LeftLeg  25.0003 -11.4175 -5.43187
LeftFoot  -24.793 1.22246 9.10354
LeftToes  -7.16024e-010 4.79583e-011 -5.98286e-011
1299
root  22.0935 36.8595 7.18467 167.665 -74.0226 -175.768
RightUpLeg  -21.6032 -1.60237 -3.94176
RightLeg  21.2518 7.22843 2.92982
RightFoot  6.70369 -0.663197 4.4092
RightToes  6.35927e-011 1.30204e-014 -6.03759e-014
Spine  8.81983 -1.44456 5.5632
Spine1  12.3192 -1.24622 0.887199
HEad  -30.5964 9.48712 0.967409
LeftShoulder1  0.934371 0.862682 -29.284
LeftArm  -4.24364 -23.1997 -35.0977
LeftForeArm  17.6698 -74.0938 -44.5393
LeftHand  -0.122586 0.255513 2.76812
RightShoulder  0.00378048 -3.46488 24.5192
RightArm  -19.1401 5.26463 24.5021
RightForeArm  50.7178 78.1742 92.6337
RightHand  0.00568405 3.46001 -0.172554
LeftUpLeg  16.2654 -9.9813 -0.777889
LeftLeg  31.6265 -13.8953 -8.79431
LeftFoot  -24.5514 0.98693 7.2704
LeftToes  -7.16024e-010 4.79583e-011 -5.98286e-011
1300
root  21.0263 36.6502 6.46279 161.518 -75.8423 -169.187
RightUpLeg  -22.9057 -2.30122 -2.30285
RightLeg  27.5693 5.89595 3.08108
RightFoot  4.44774 -0.232108 1.84934
RightToes  6.35927e-011 1.30204e-014 -6.03759e-014
Spine  8.9456 -1.85707 7.3865
Spine1  12.1849 -1.46063 1.68612
HEad  -31.494 9.7174 0.344821
LeftShoulder1  0.90548 0.961424 -29.5232
LeftArm  -5.65315 -21.1118 -34.8117
LeftForeArm  20.9259 -74.8954 -47.713
LeftHand  -0.111 0.242418 2.49883
RightShoulder  0.0192409 -3.41469 24.5582
RightArm  -18.5736 5.72886 25.0177
RightForeArm  53.4355 78.1228 95.5831
RightHand  0.00928929 3.45333 -0.124696
LeftUpLeg  12.416 -9.16734 3.239
LeftLeg  41.5412 -15.7666 -14.1473
LeftFoot  -19.9911 0.377044 2.91432
LeftToes  -7.16024e-010 4.79583e-011 -5.98286e-011
1301
root  20.1069 36.5561 5.76488 151.449 -78.4418 -159.018
RightUpLeg  -22.5449 -3.13866 -0.752797
RightLeg  31.6551 3.16867 1.86333
RightFoot  -0.00100814 -0.0433921 0.484602
RightToes  6.35927e-011 1.30204e-014 -6.03759e-014
Spine  9.82056 -2.52463 8.47857
Spine1  11.7213 -2.07709 3.16011
HEad  -32.3272 9.43432 0.54865
LeftShoulder1  0.935909 0.879991 -29.5823
LeftArm  -6.56497 -20.0405 -34.8838
LeftForeArm  22.8624 -75.2633 -49.2847
LeftHand  -0.103594 0.191886 2.31326
RightShoulder  0.0242336 -3.39842 24.5134
RightArm  -18.4672 5.67911 25.4348
RightForeArm  56.1014 78.0399 98.5089
RightHand  0.00251359 3.32784 -0.208199
LeftUpLeg  6.72047 -9.55715 6.73282
LeftLeg  52.2683 -13.8234 -17.8422
LeftFoot  -10.2052 0.121034 -3.60125
LeftToes  -7.16024e-010 4.79583e-011 -5.98286e-011
1302
root  19.2878 36.6027 5.14645 138.345 -80.931 -146.275
RightUpLeg  -20.8936 -4.09853 0.20467
RightLeg  33.5115 1.22828 0.620908
RightFoot  -2.78086 -0.0480619 0.399805
RightToes  6.35927e-011 1.30204e-014 -6.03759e-014
Spine  11.109 -3.14448 9.44694
Spine1  11.3542 -2.42457 3.7803
HEad  -32.1035 8.3094 -1.23983
LeftShoulder1  1.00643 0.659299 -29.2945
LeftArm  -6.97765 -20.3006 -35.3169
LeftForeArm  22.9699 -75.2112 -48.9415
LeftHand  -0.102192 0.0760665 2.24499
RightShoulder  0.00631989 -3.45659 24.4785
RightArm  -19.0862 5.24028 25.7469
RightForeArm  59.5687 77.8978 102.16
RightHand  -0.0257452 3.12199 -0.583531
LeftUpLeg  0.755056 -10.3759 8.49939
LeftLeg  60.7707 -8.93791 -16.1917
LeftFoot  -0.50586 0.735968 -8.10947
LeftToes  -7.16024e-010 4.79583e-011 -5.98286e-011
